<svg xmlns="http://www.w3.org/2000/svg" width="18" height="24" fill="none"><path fill="#fff" d="M.563 8.438c0 4.167 3.181 8.69 5.99 12.597a94.545 94.545 0 0 1 1.862 2.652.703.703 0 0 0 1.17 0 92.995 92.995 0 0 1 1.863-2.652c2.808-3.908 5.99-8.43 5.99-12.598C17.438 3.785 13.652 0 9 0 4.347 0 .562 3.785.562 8.438Zm12.656 0A4.223 4.223 0 0 1 9 12.655a4.223 4.223 0 0 1-4.219-4.219A4.223 4.223 0 0 1 9 4.22a4.223 4.223 0 0 1 4.219 4.218Z"/><path fill="#fff" d="M9 11.25a2.813 2.813 0 1 0 0-5.625 2.813 2.813 0 0 0 0 5.625Z"/></svg>