<svg xmlns="http://www.w3.org/2000/svg" width="234" height="46" fill="none"><path fill="#fff" d="M60.564 12.298v26.86h-5.06v-26.86h-8.27v-4.3h21.558v4.3h-8.228Zm12.756 9.897c.496-1.334 1.148-2.32 1.956-2.958.822-.639 1.835-.958 3.04-.958.652 0 1.29.078 1.913.234a9.262 9.262 0 0 1 1.871.681l-1.658 3.916a4.044 4.044 0 0 0-1.297-.617 5.116 5.116 0 0 0-1.53-.213c-1.531 0-2.63.618-3.296 1.852-.666 1.22-1 3.278-1 6.173v8.854h-4.612v-20.22h4.613v3.256Zm30.38 16.964h-4.613V36.54c-.823 1.164-1.786 2.03-2.892 2.597-1.091.567-2.345.851-3.763.851-2.849 0-5.095-.972-6.739-2.916-1.63-1.958-2.445-4.633-2.445-8.024 0-3.221.836-5.818 2.509-7.79 1.672-1.987 3.855-2.98 6.548-2.98 1.644 0 3.047.348 4.21 1.043 1.175.68 2.033 1.667 2.572 2.958V18.98h4.613v20.18Zm-4.486-10.153c0-2.086-.489-3.71-1.467-4.874-.964-1.164-2.317-1.745-4.06-1.745-1.744 0-3.118.603-4.125 1.809-.992 1.192-1.488 2.852-1.488 4.98 0 2.143.482 3.796 1.446 4.96.964 1.163 2.324 1.745 4.082 1.745 1.658 0 3.004-.631 4.039-1.894 1.049-1.263 1.573-2.923 1.573-4.98Zm17.943 11.366-10.566-21.39h5.039l4.4 10.152c.142.312.312.78.511 1.405.198.624.404 1.369.616 2.235.142-.61.305-1.214.489-1.81.199-.61.432-1.22.702-1.83l4.379-10.153h5.018l-10.588 21.391Zm32.91-10.621h-16.115c.114 1.887.674 3.363 1.68 4.427 1.006 1.05 2.345 1.575 4.018 1.575 1.488 0 2.728-.312 3.72-.936.992-.624 1.857-1.632 2.594-3.023l3.89 2.171c-1.133 2.03-2.536 3.54-4.209 4.534-1.672.993-3.635 1.49-5.889 1.49-3.231 0-5.804-.986-7.717-2.958-1.913-1.973-2.87-4.605-2.87-7.897 0-3.164.985-5.761 2.955-7.79 1.984-2.044 4.528-3.065 7.632-3.065 3.246 0 5.776.93 7.59 2.788 1.814 1.859 2.721 4.463 2.721 7.811v.873Zm-4.783-3.107c-.185-1.448-.737-2.547-1.659-3.3-.921-.766-2.182-1.149-3.784-1.149-1.516 0-2.735.37-3.656 1.107-.922.738-1.567 1.852-1.935 3.342h11.034Zm9.822 12.515V6.168h4.613v32.99h-4.613Zm11.437 0V6.168h4.614v32.99h-4.614Zm10.821-28.904c0-.78.284-1.455.851-2.022.581-.568 1.268-.852 2.062-.852.822 0 1.502.277 2.041.83.553.54.829 1.22.829 2.044 0 .823-.276 1.518-.829 2.085-.553.554-1.233.83-2.041.83-.794 0-1.481-.283-2.062-.85-.567-.583-.851-1.27-.851-2.065Zm.617 28.904V18.98h4.613v20.18h-4.613Zm30.189 0h-4.614V36.54c-.822 1.164-1.786 2.03-2.891 2.597-1.091.567-2.346.851-3.763.851-2.849 0-5.095-.972-6.739-2.916-1.63-1.958-2.445-4.633-2.445-8.024 0-3.221.836-5.818 2.509-7.79 1.672-1.987 3.855-2.98 6.547-2.98 1.645 0 3.048.348 4.21 1.043 1.176.68 2.034 1.667 2.572 2.958V18.98h4.614v20.18Zm-4.486-10.153c0-2.086-.489-3.71-1.467-4.874-.964-1.164-2.317-1.745-4.061-1.745-1.743 0-3.118.603-4.124 1.809-.992 1.192-1.488 2.852-1.488 4.98 0 2.143.482 3.796 1.445 4.96.964 1.163 2.325 1.745 4.082 1.745 1.659 0 3.005-.631 4.04-1.894 1.048-1.263 1.573-2.923 1.573-4.98Zm10.863 10.153V18.98h4.337v3.3c.922-1.391 2.006-2.406 3.253-3.044 1.247-.639 2.764-.958 4.55-.958 1.502 0 2.778.241 3.826.724 1.063.468 1.893 1.17 2.488 2.107.354.553.609 1.199.765 1.937.156.737.234 2.029.234 3.873V39.16h-4.656V28.793c0-2.653-.326-4.413-.978-5.278-.638-.88-1.778-1.32-3.423-1.32-1.077 0-2.04.199-2.891.596-.836.398-1.495.958-1.977 1.682-.34.482-.581 1.106-.723 1.873-.127.752-.191 1.958-.191 3.618v9.195h-4.614ZM14.443 33.247l5.917 5.833 5.916-5.833-5.916-5.832-5.917 5.832ZM20.36 4.941v.009a6.644 6.644 0 0 0-4.677 1.909l-.006-.006a6.472 6.472 0 0 0-1.934 4.616 6.45 6.45 0 0 0 1.928 4.61h.009l4.68 4.611 4.677-4.61h.009a6.456 6.456 0 0 0 1.939-4.61h-.009c0-1.67-.646-3.34-1.936-4.611a6.66 6.66 0 0 0-4.68-1.918Zm9.327 31.668-7.622 7.514-1.705 1.681-1.706-1.68-7.621-7.515-7.622 7.514L0 40.761l16.952-16.708-4.677-4.611.006-.006a11.15 11.15 0 0 1-3.357-7.967 11.15 11.15 0 0 1 3.351-7.964V3.5A11.486 11.486 0 0 1 20.36.196v.009c2.93 0 5.86 1.099 8.087 3.294a11.157 11.157 0 0 1 3.348 7.973h-.009c0 2.883-1.115 5.766-3.345 7.967l.006.006-4.677 4.608L40.72 40.76l-3.411 3.362-7.622-7.514Z"/></svg>