<svg xmlns="http://www.w3.org/2000/svg" width="32" height="32" fill="none"><path fill="#fff" fill-rule="evenodd" d="M15.949.485c2.885.033 5.49.742 7.818 2.127a15.609 15.609 0 0 1 5.555 5.59c1.377 2.34 2.082 4.962 2.114 7.865-.081 3.97-1.334 7.362-3.757 10.174-2.423 2.812-5.526 4.552-8.74 5.219V20.327h3.038l.687-4.375h-4.6v-2.866a2.49 2.49 0 0 1 .53-1.645c.368-.469 1.016-.715 1.944-.74h2.777V6.87c-.04-.012-.418-.063-1.135-.152a22.545 22.545 0 0 0-2.447-.152c-1.851.009-3.316.531-4.393 1.567s-1.627 2.534-1.65 4.495v3.325h-3.5v4.375h3.5V31.46c-3.945-.667-7.048-2.407-9.471-5.219C1.796 23.429.543 20.037.46 16.067c.033-2.903.738-5.524 2.114-7.866a15.609 15.609 0 0 1 5.556-5.59C10.458 1.228 13.064.519 15.95.486Z" clip-rule="evenodd"/></svg>