<svg xmlns="http://www.w3.org/2000/svg" width="33" height="34" fill="none"><path fill="#fff" d="M32 17.48C32.24 8.32 24.88.88 15.76 1 7 1.12-.08 8.36 0 17.12.04 23.4 3.72 28.8 9 31.4c.32.16.68-.08.64-.44-.04-1.04 0-2.12.2-3 .2-.88 1-4.24 1.52-6.44.24-1.08.28-2.2.08-3.28-.08-.36-.12-.76-.12-1.24 0-2.36 1.36-4.12 3.08-4.12 1.44 0 2.16 1.08 2.16 2.4 0 1.44-.92 3.64-1.4 5.68-.4 1.68.84 3.08 2.52 3.08 3.04 0 5.36-3.2 5.36-7.8 0-4.08-2.92-6.92-7.12-6.92-4.84 0-7.68 3.64-7.68 7.4 0 1.48.56 3.04 1.28 3.88.12.16.16.32.12.48-.12.52-.4 1.68-.48 1.92-.08.32-.24.36-.56.24-2.12-1.04-3.48-4.16-3.48-6.64C5.12 11.24 9 6.32 16.36 6.32c5.88 0 10.48 4.2 10.48 9.84 0 5.88-3.68 10.56-8.84 10.56-1.36 0-2.64-.56-3.4-1.32a.429.429 0 0 0-.72.2c-.28 1-.68 2.68-.84 3.2-.24.96-.76 2.08-1.32 3.08-.16.24 0 .6.28.64 1.32.32 2.68.52 4.08.48 8.48-.08 15.68-7.12 15.92-15.52Z"/></svg>