<svg xmlns="http://www.w3.org/2000/svg" width="26" height="22" fill="none"><path fill="#fff" d="M25.768 3.064c-.96.416-1.952.704-3.008.832A5.12 5.12 0 0 0 25.064.984c-1.024.608-2.144 1.024-3.328 1.28a5.251 5.251 0 0 0-9.088 3.584c0 .416.032.8.128 1.184C8.424 6.84 4.584 4.728 1.992 1.56c-1.856 3.328.224 6.08 1.6 7.008-.832 0-1.664-.256-2.368-.64 0 2.592 1.824 4.736 4.192 5.216-.512.16-1.664.256-2.368.096.672 2.08 2.624 3.616 4.896 3.648-1.792 1.408-4.416 2.528-7.776 2.176a14.804 14.804 0 0 0 8.064 2.368c9.664 0 14.912-8 14.912-14.912 0-.224 0-.448-.032-.672 1.088-.8 1.984-1.728 2.656-2.784Z"/></svg>